<?xml version="1.0" encoding="UTF-8"?>
<svg width="100" height="100" viewBox="0 0 100 100" fill="none" xmlns="http://www.w3.org/2000/svg">
  <rect width="100" height="100" rx="8" fill="#F3F4F6"/>
  <path d="M50 30C41.7157 30 35 36.7157 35 45C35 53.2843 41.7157 60 50 60C58.2843 60 65 53.2843 65 45C65 36.7157 58.2843 30 50 30ZM50 55C44.4772 55 40 50.5228 40 45C40 39.4772 44.4772 35 50 35C55.5228 35 60 39.4772 60 45C60 50.5228 55.5228 55 50 55Z" fill="#9CA3AF"/>
  <path d="M50 40C47.2386 40 45 42.2386 45 45C45 47.7614 47.2386 50 50 50C52.7614 50 55 47.7614 55 45C55 42.2386 52.7614 40 50 40Z" fill="#9CA3AF"/>
  <path d="M30 70C30 65.5817 33.5817 62 38 62H62C66.4183 62 70 65.5817 70 70V70C70 70 70 70 70 70H30V70Z" fill="#9CA3AF"/>
</svg> 